<?xml version="1.0" encoding="UTF-8"?><svg id="katman_2" xmlns="http://www.w3.org/2000/svg" xmlns:xlink="http://www.w3.org/1999/xlink" viewBox="0 0 750.71 181.7"><defs><style>.cls-1{fill:url(#New_Gradient_Swatch-13);}.cls-2{fill:url(#New_Gradient_Swatch-17);}.cls-3{fill:url(#New_Gradient_Swatch-7);}.cls-4{fill:url(#New_Gradient_Swatch-18);}.cls-5{fill:url(#New_Gradient_Swatch-6);}.cls-6{fill:url(#New_Gradient_Swatch);}.cls-7{fill:url(#New_Gradient_Swatch-5);}.cls-8{fill:url(#New_Gradient_Swatch-16);}.cls-9{fill:url(#New_Gradient_Swatch-8);}.cls-10{fill:url(#New_Gradient_Swatch-4);}.cls-11{fill:url(#New_Gradient_Swatch-3);}.cls-12{fill:url(#New_Gradient_Swatch-14);}.cls-13{fill:url(#New_Gradient_Swatch-19);}.cls-14{fill:url(#New_Gradient_Swatch-10);}.cls-15{fill:url(#New_Gradient_Swatch-12);}.cls-16{fill:url(#New_Gradient_Swatch-9);}.cls-17{fill:url(#New_Gradient_Swatch-15);}.cls-18{fill:url(#New_Gradient_Swatch-11);}.cls-19{fill:url(#New_Gradient_Swatch-2);}</style><linearGradient id="New_Gradient_Swatch" x1="227.13" y1="-3.36" x2="224.14" y2="107.37" gradientTransform="matrix(1, 0, 0, 1, 0, 0)" gradientUnits="userSpaceOnUse"><stop offset="0" stop-color="#25368c"/><stop offset="1" stop-color="#325aa6"/></linearGradient><linearGradient id="New_Gradient_Swatch-2" x1="267.16" y1="-2.28" x2="264.16" y2="108.46" xlink:href="#New_Gradient_Swatch"/><linearGradient id="New_Gradient_Swatch-3" x1="331" y1="-.56" x2="328.01" y2="110.18" xlink:href="#New_Gradient_Swatch"/><linearGradient id="New_Gradient_Swatch-4" x1="403.29" y1="1.4" x2="400.3" y2="112.13" xlink:href="#New_Gradient_Swatch"/><linearGradient id="New_Gradient_Swatch-5" x1="487.17" y1="3.67" x2="484.18" y2="114.4" xlink:href="#New_Gradient_Swatch"/><linearGradient id="New_Gradient_Swatch-6" x1="588.34" y1="6.4" x2="585.35" y2="117.14" xlink:href="#New_Gradient_Swatch"/><linearGradient id="New_Gradient_Swatch-7" x1="681.66" y1="8.92" x2="678.66" y2="119.66" xlink:href="#New_Gradient_Swatch"/><linearGradient id="New_Gradient_Swatch-8" x1="727.44" y1="10.16" x2="724.45" y2="120.9" xlink:href="#New_Gradient_Swatch"/><linearGradient id="New_Gradient_Swatch-9" x1="738.61" y1="55.41" x2="738.28" y2="118.26" xlink:href="#New_Gradient_Swatch"/><linearGradient id="New_Gradient_Swatch-10" x1="65.23" y1="-7.74" x2="62.24" y2="103" xlink:href="#New_Gradient_Swatch"/><linearGradient id="New_Gradient_Swatch-11" x1="103.42" y1="-6.71" x2="100.43" y2="104.03" xlink:href="#New_Gradient_Swatch"/><linearGradient id="New_Gradient_Swatch-12" x1="101.39" y1="-6.76" x2="98.39" y2="103.97" xlink:href="#New_Gradient_Swatch"/><linearGradient id="New_Gradient_Swatch-13" x1="98.86" y1="-6.83" x2="95.87" y2="103.91" xlink:href="#New_Gradient_Swatch"/><linearGradient id="New_Gradient_Swatch-14" x1="35.2" y1="-8.55" x2="32.21" y2="102.19" xlink:href="#New_Gradient_Swatch"/><linearGradient id="New_Gradient_Swatch-15" x1="40.24" y1="-8.41" x2="37.25" y2="102.32" xlink:href="#New_Gradient_Swatch"/><linearGradient id="New_Gradient_Swatch-16" x1="55.05" y1="-8.01" x2="52.06" y2="102.72" xlink:href="#New_Gradient_Swatch"/><linearGradient id="New_Gradient_Swatch-17" x1="131.96" y1="-5.93" x2="128.97" y2="104.8" xlink:href="#New_Gradient_Swatch"/><linearGradient id="New_Gradient_Swatch-18" x1="40.53" y1="-8.41" x2="37.54" y2="102.33" xlink:href="#New_Gradient_Swatch"/><linearGradient id="New_Gradient_Swatch-19" x1="117.34" y1="-6.33" x2="114.35" y2="104.41" xlink:href="#New_Gradient_Swatch"/></defs><g id="Layer_1"><g><path class="cls-6" d="M251.7,95.78v.02L193.53,24.76h-22.4v117h26.75V76.99c-2.07-6.75-4.84-12.35-4.97-12.61l6.5,8.2,.1,.13,56.7,69.04h22.23v-13.2l-26.75-32.77Z"/><polygon class="cls-19" points="278.44 24.76 251.7 24.76 251.7 92.3 278.44 125.07 278.44 24.76"/><path class="cls-11" d="M371.51,97.32c.04-9.36-1.78-17.58-5.45-24.68-3.67-7.09-8.75-12.55-15.22-16.36-6.48-3.82-13.72-5.74-21.73-5.78-8.22-.04-15.65,1.91-22.32,5.84-6.66,3.93-11.91,9.42-15.74,16.48-3.83,7.06-5.77,14.99-5.81,23.79-.04,8.92,1.85,16.89,5.68,23.93,3.82,7.04,9.28,12.55,16.36,16.54,7.08,3.99,15.24,6,24.47,6.04,14.81,.06,26.09-4.73,33.84-14.39l-12.56-15.1c-2.85,3-5.93,5.18-9.23,6.56-3.31,1.38-7.09,2.06-11.35,2.04-6.19-.03-11.35-1.66-15.5-4.91-4.15-3.25-6.76-7.66-7.85-13.24l61.93,.27c.32-4.34,.48-6.68,.49-7.02Zm-62.65-8.46c.84-5.79,3.09-10.35,6.75-13.68,3.67-3.33,8.19-4.98,13.56-4.96,5.27,.02,9.73,1.74,13.37,5.16,3.64,3.42,5.85,7.96,6.64,13.65l-40.32-.17Z"/><path class="cls-10" d="M389.82,141.8V71.9h-13.87v-20.06h13.87V29.52l26.07,7.56v14.76h11.48v20.06h-11.48v69.91h-26.07Z"/><path class="cls-7" d="M512.24,56.26c6.85,3.84,12.23,9.25,16.13,16.21,3.9,6.96,5.85,15.07,5.85,24.32s-1.95,17.36-5.85,24.32c-3.9,6.96-9.28,12.37-16.13,16.21-6.85,3.84-14.46,5.77-22.81,5.77-11.48,0-20.5-3.62-27.08-10.86v49.47h-26.07V51.83h24.9v10.36h0c6.46-7.8,15.88-11.7,28.25-11.7,8.36,0,15.96,1.92,22.81,5.77Zm-8.53,58.67c4.29-4.51,6.43-10.56,6.43-18.13s-2.15-13.62-6.43-18.13c-4.29-4.51-9.78-6.77-16.46-6.77s-12.17,2.26-16.46,6.77c-4.29,4.51-6.43,10.56-6.43,18.13s2.14,13.62,6.43,18.13c4.29,4.51,9.78,6.77,16.46,6.77s12.17-2.26,16.46-6.77Z"/><path class="cls-5" d="M631.45,51.83v89.92h-24.74v-10.7c-3.46,3.9-7.58,6.88-12.37,8.94-4.79,2.06-9.97,3.09-15.54,3.09-11.81,0-21.17-3.4-28.08-10.2-6.91-6.8-10.36-16.88-10.36-30.25V51.83h26.07v46.97c0,14.49,6.07,21.73,18.22,21.73,6.24,0,11.25-2.03,15.04-6.1,3.79-4.07,5.68-10.11,5.68-18.14V51.83h26.07Z"/><path class="cls-3" d="M655.57,140.33c-5.82-1.56-10.63-3.47-14.43-5.72-1.1-.65-1.52-2.08-.98-3.28l6.27-14.1c.6-1.35,2.17-1.86,3.42-1.14,3.36,1.93,7.24,3.55,11.65,4.85,5.45,1.62,10.79,2.42,16.02,2.42,10.57,0,15.86-2.73,15.86-8.19,0-2.56-1.44-4.4-4.33-5.52-2.88-1.11-7.32-2.06-13.29-2.84-7.05-1.11-12.87-2.4-17.46-3.84-4.59-1.45-8.57-4.01-11.93-7.69-3.36-3.68-5.05-8.91-5.05-15.71,0-5.68,1.57-10.72,4.73-15.13,3.15-4.4,7.74-7.83,13.78-10.28,6.03-2.45,13.16-3.68,21.38-3.68,6.09,0,12.15,.7,18.18,2.09,5.03,1.16,9.35,2.7,12.93,4.59,1.16,.62,1.63,2.1,1.07,3.34l-6.27,13.97c-.58,1.3-2.08,1.83-3.31,1.19-6.97-3.64-14.51-5.46-22.61-5.46-5.34,0-9.35,.78-12.01,2.34-2.67,1.56-4,3.57-4,6.02,0,2.79,1.44,4.74,4.32,5.85,2.88,1.12,7.47,2.17,13.78,3.18,7.05,1.23,12.81,2.54,17.3,3.93,4.49,1.39,8.38,3.93,11.69,7.61,3.31,3.68,4.97,8.8,4.97,15.38,0,5.57-1.6,10.53-4.81,14.88-3.2,4.35-7.88,7.72-14.02,10.11-6.14,2.39-13.43,3.59-21.87,3.59-7.15,0-14.15-.92-20.98-2.76Z"/><path class="cls-9" d="M729.74,40c.97,.55,1.73,1.31,2.28,2.28,.55,.97,.83,2.04,.83,3.22s-.28,2.25-.85,3.23c-.56,.98-1.33,1.75-2.31,2.31-.97,.56-2.05,.85-3.22,.85s-2.25-.28-3.21-.85c-.97-.56-1.73-1.33-2.29-2.31-.56-.97-.84-2.04-.84-3.21s.28-2.23,.84-3.21c.56-.97,1.32-1.74,2.3-2.31,.97-.56,2.05-.85,3.24-.85s2.27,.28,3.23,.83Zm-.65,10.02c.79-.46,1.4-1.09,1.86-1.89,.45-.8,.68-1.68,.68-2.64s-.22-1.85-.66-2.63c-.44-.78-1.05-1.4-1.83-1.85-.78-.45-1.66-.68-2.63-.68s-1.85,.23-2.63,.68c-.78,.46-1.39,1.08-1.84,1.87-.44,.79-.67,1.67-.67,2.63s.22,1.84,.67,2.63,1.05,1.42,1.83,1.87c.78,.46,1.64,.68,2.6,.68s1.83-.23,2.62-.69Zm.4-4.2c-.22,.37-.55,.65-.98,.86l1.53,2.34h-1.87l-1.31-2.02h-1.24v2.02h-1.87v-6.99h3.04c.95,0,1.69,.22,2.23,.68,.54,.45,.81,1.05,.81,1.81,0,.5-.11,.94-.33,1.31Zm-2.84-.23c.42,0,.75-.09,.98-.28,.23-.19,.35-.45,.35-.8s-.12-.62-.35-.81c-.23-.19-.56-.29-.98-.29h-1.06v2.18h1.06Z"/><circle class="cls-16" cx="738.21" cy="130.61" r="12.5"/><g><circle class="cls-14" cx="64.83" cy="7.36" r="7.36"/><polygon class="cls-18" points="72.96 78.69 129.45 45.91 130.12 47.08 72.93 80.26 72.96 78.69"/><polygon class="cls-15" points="65.54 153.08 128.2 117.82 128.87 78.92 130.21 78.95 129.53 118.61 66.19 154.25 65.54 153.08"/><polygon class="cls-1" points="65.32 82.5 64.47 5.27 97.68 24.1 97.02 25.27 65.83 7.59 66.66 81.72 129.56 117.84 128.89 119.01 65.32 82.5"/><polygon class="cls-12" points="2.86 42.55 65.06 5.42 65.75 6.57 3.55 43.71 2.86 42.55"/><path class="cls-17" d="M27.41,76.54l-7.24-3.71,.18,39.36,7.51,3.6,.83-22.39c-.65-2.18-1.53-3.99-1.57-4.08l2.08,2.66,.03,.04,17.32,34.06,7.82,4.03v-2.59l-26.95-50.98Z"/><polygon class="cls-8" points="54.98 89.73 49.23 86.96 49.16 115.81 54.71 125.2 54.98 89.73"/><circle class="cls-2" cx="128.64" cy="116.82" r="7.36"/><path class="cls-4" d="M75.19,161.98l-.28-84.54L0,38.64,.28,123.17l74.9,38.8ZM11.56,57.57l51.88,26.87,.2,58.6L11.75,116.17l-.2-58.6Z"/><path class="cls-13" d="M135.91,88.73l-.15-45.51-40.32-20.89,.15,45.51,40.32,20.89Zm-28.92-47.47l17.3,8.96,.07,19.57-17.3-8.96-.07-19.58Z"/></g></g></g></svg>