<svg xmlns="http://www.w3.org/2000/svg" viewBox="0 0 255.02 260.78"><defs><style>.cls-1,.cls-3{fill:#fff;}.cls-1,.cls-2{fill-rule:evenodd;}.cls-2{fill:#fdea00;}</style></defs><g id="katman_2" data-name="katman 2"><g id="katman_1-2" data-name="katman 1"><path class="cls-1" d="M234.8,178.55l13.06,8.78-11.84,20L222.49,200a111.86,111.86,0,0,0,12.31-21.48m-116.88,67.7-3.86,14-22.73-4.87,2.47-14.24a113.48,113.48,0,0,1-19.91-8.62l-8.65,11-19.07-13.3,7.57-11.83.93.81a114.39,114.39,0,0,1-17.06-18.2L25,207.76,12.93,187.9l12.18-8.09c.19.44.39.87.59,1.3a110.51,110.51,0,0,1-7-19.86H46.57C58,195.64,90.86,220.5,129.67,220.5s71.72-24.86,83.11-59.25h27.85a111.66,111.66,0,0,1-34.25,56.51l.89-.81,8.21,12.88-18.85,13.6-9.32-11.91a114.72,114.72,0,0,1-21.44,9.56l.24-.08,2.29,14.94-22.74,4.84L142,246.19a115.77,115.77,0,0,1-12.28.64,119.79,119.79,0,0,1-12.34-.64Z"/><path class="cls-1" d="M115.58,0h23.25l.89,16.86a114.79,114.79,0,0,1,22.89,4.59l7.51-15.22,21.2,9.55-6,15.5a115.23,115.23,0,0,1,19.48,13.93L217.3,35l15.36,17.45-11.26,11A114.82,114.82,0,0,1,233.92,85.1l14.74-3.84L255,102.57H212.54a88.85,88.85,0,0,0-168,0H0L5.27,84,22,87.75A115.15,115.15,0,0,1,34.35,65.21L21.87,53.44,37.22,36,50.69,46.61A115.75,115.75,0,0,1,70,32.3l0,0L63.56,16.55,84.78,7.06l7.69,15a114.88,114.88,0,0,1,22.5-5Z"/><path class="cls-2" d="M128.33,49.32a77.83,77.83,0,0,1,73.85,53.25H164.91a44.07,44.07,0,0,0-73.17,0H54.48a77.83,77.83,0,0,1,73.85-53.25"/><path class="cls-3" d="M195.24,153.33v-38.8h8.61L221,137.11a22.73,22.73,0,0,1,1.62,2.7c.55,1.08,1.16,2.43,1.85,4.08-.07-.48-.14-1-.22-1.62s-.15-1.2-.2-1.8c0-.44,0-1.17-.06-2.17s-.05-1.7-.05-2.07v-21.7h7.92v38.8h-8.13l-17.64-23a18.42,18.42,0,0,1-1.58-2.65c-.57-1.13-1.2-2.52-1.89-4.19.18,1,.32,2.16.42,3.4,0,.46,0,1.19.06,2.21s0,1.71,0,2.08v22.16Zm-44.62,0,14.76-38.8h9.48l15,38.8h-9.43l-3.16-8.25h-15l-2.71,8.25Zm24.69-14.76L171,126l-.48-1.91-.61-3.31c-.23,1.32-.45,2.46-.66,3.4l-.48,2-4.18,12.37ZM121,148.35l4.62-5.17a7.12,7.12,0,0,0,2.83,3.33,7.84,7.84,0,0,0,4.33,1.23,7.14,7.14,0,0,0,4.6-1.37,4.52,4.52,0,0,0,1.69-3.7c0-1.81-1.88-3.64-5.64-5.47l-2.89-1.42q-5-2.59-7-5.16a10.06,10.06,0,0,1,1.81-13.88,15.17,15.17,0,0,1,9.87-3.08,17.22,17.22,0,0,1,3.27.29,10.71,10.71,0,0,1,2.79,1,11.76,11.76,0,0,1,4.53,3.83l-4.9,4.64a6.07,6.07,0,0,0-2.31-2.47,6.8,6.8,0,0,0-3.48-.85,6.15,6.15,0,0,0-4,1.22,3.94,3.94,0,0,0-1.49,3.2q0,3,6,5.6l1.83.79a20,20,0,0,1,7.26,5,9.78,9.78,0,0,1,2.4,6.48,10.89,10.89,0,0,1-3.73,8.64q-3.72,3.27-10,3.27a17.55,17.55,0,0,1-7.64-1.52A10.43,10.43,0,0,1,121,148.35Zm-25.59,5v-38.8h8.3v31.75H117v7.05Zm-18.47,0v-38.8h8.31v38.8Zm-29.15-6.4a11.36,11.36,0,0,0,8.7-3.7,14.05,14.05,0,0,0,0-18.47A11.3,11.3,0,0,0,47.8,121a11.39,11.39,0,0,0-8.73,3.75A14.14,14.14,0,0,0,39,143.26,11.49,11.49,0,0,0,47.8,146.93Zm20.67-13a20.15,20.15,0,0,1-1.54,7.87,19,19,0,0,1-4.5,6.51,21.52,21.52,0,0,1-6.79,4.38,20.62,20.62,0,0,1-7.84,1.57,21.17,21.17,0,0,1-6.93-1.19,20.44,20.44,0,0,1-6.26-3.47A19.82,19.82,0,0,1,27.06,134a20.41,20.41,0,0,1,1.52-7.85,19.26,19.26,0,0,1,4.47-6.49,21.35,21.35,0,0,1,6.82-4.41,21,21,0,0,1,7.93-1.57,20.53,20.53,0,0,1,7.9,1.56,21.42,21.42,0,0,1,6.75,4.41,19.25,19.25,0,0,1,4.48,6.53A20.09,20.09,0,0,1,68.47,134Z"/><path class="cls-3" d="M197.78,169.85h.29a3,3,0,0,0,1.56-.26,1,1,0,0,0,.38-.89,1.06,1.06,0,0,0-.41-.95,2.88,2.88,0,0,0-1.53-.28h-.29Zm4.64,5.24h-2.24l-2.4-4.27v4.27h-1.95V166h2.79a4,4,0,0,1,2.49.64,2.32,2.32,0,0,1,.83,1.94,2.4,2.4,0,0,1-.56,1.6,2.33,2.33,0,0,1-1.47.79Zm-17.07,0,3.46-9.11H191l3.52,9.11h-2.22l-.74-1.93h-3.53l-.63,1.93Zm5.8-3.46-1-2.95-.12-.45-.14-.77c-.05.31-.11.57-.15.79l-.12.47-1,2.91Zm-11.32,3.46V166h1.95v7.46h3.11v1.65ZM171.46,163h.76a.84.84,0,0,0,.09.4.76.76,0,0,0,.23.3,1.24,1.24,0,0,0,.84.23,1.29,1.29,0,0,0,.83-.22,1,1,0,0,0,.32-.71h.76a2.37,2.37,0,0,1-.14.83,1.63,1.63,0,0,1-1.77,1.06,2,2,0,0,1-1.4-.47,1.67,1.67,0,0,1-.38-.6A2.11,2.11,0,0,1,171.46,163Zm2.34,7.27H178l0,.17v.29a4.7,4.7,0,0,1-1.17,3.31,3.92,3.92,0,0,1-3,1.26,4.79,4.79,0,0,1-3.5-1.35,4.93,4.93,0,0,1,0-6.85,4.8,4.8,0,0,1,3.49-1.35,4.43,4.43,0,0,1,2,.47,5.07,5.07,0,0,1,1.67,1.39l-1.32,1a3.15,3.15,0,0,0-1-.87,2.8,2.8,0,0,0-1.25-.27,2.89,2.89,0,0,0-2.16.84,3.49,3.49,0,0,0,0,4.47,2.82,2.82,0,0,0,2.12.85,2.52,2.52,0,0,0,1.55-.45A1.4,1.4,0,0,0,176,172v-.1H173.8Zm-15,4.8,3.47-9.11h2.23l3.52,9.11h-2.22l-.74-1.93h-3.53l-.64,1.93Zm5.8-3.46-1-2.95-.11-.45-.14-.77c-.06.31-.11.57-.16.79l-.11.47-1,2.91Zm-10.18,3.46v-4.16l-3.09-5h2.28l1.35,2.49q.11.21.21.48l.22.66c0-.11.05-.21.08-.3l.11-.3c.08-.19.16-.38.25-.55l1.34-2.48h2.27l-3.07,5v4.16Zm-12.4,0V166h2v7.46h3.11v1.65Zm-7.59,0V166h5.37v1.64h-3.42v1.88h3.42v1.65h-3.42v2.29h3.42v1.65Zm-6.16,0v-4.16l-3.09-5h2.29l1.35,2.49c.07.14.13.3.2.48l.22.66q0-.17.09-.3a2.63,2.63,0,0,1,.1-.3c.08-.19.16-.38.25-.55L131,166h2.27l-3.07,5v4.16ZM122.19,164a.81.81,0,0,1,.25-.59.79.79,0,0,1,.59-.27.83.83,0,0,1,.6.26.82.82,0,0,1,.25.6.83.83,0,0,1-.24.6.81.81,0,0,1-.61.25.85.85,0,0,1-.84-.85Zm-.14,11.1V166h2v9.11Zm-6.13-5.24h.29a3.06,3.06,0,0,0,1.56-.26,1,1,0,0,0,.38-.89,1.09,1.09,0,0,0-.41-.95,2.88,2.88,0,0,0-1.53-.28h-.29Zm4.64,5.24h-2.25l-2.39-4.27v4.27h-2V166h2.79a4,4,0,0,1,2.49.64,2.32,2.32,0,0,1,.83,1.94,2.36,2.36,0,0,1-.57,1.6,2.28,2.28,0,0,1-1.46.79Zm-10.41-7.46v7.46h-2v-7.46H106V166h6.42v1.65Zm-11.44,6.29,1.08-1.21a1.64,1.64,0,0,0,.67.78,1.78,1.78,0,0,0,1,.29,1.67,1.67,0,0,0,1.08-.32,1.06,1.06,0,0,0,.4-.87q0-.65-1.32-1.29L101,171a5,5,0,0,1-1.65-1.21,2.35,2.35,0,0,1,.43-3.26,3.49,3.49,0,0,1,2.31-.73,4.4,4.4,0,0,1,.77.07,2.59,2.59,0,0,1,.66.23,2.64,2.64,0,0,1,1.06.9l-1.15,1.09a1.32,1.32,0,0,0-.54-.58,1.54,1.54,0,0,0-.82-.2,1.46,1.46,0,0,0-.94.28.93.93,0,0,0-.35.75q0,.72,1.41,1.32l.43.19a4.72,4.72,0,0,1,1.71,1.18,2.35,2.35,0,0,1,.56,1.53,2.55,2.55,0,0,1-.88,2,3.42,3.42,0,0,1-2.35.76,4.2,4.2,0,0,1-1.79-.35A2.41,2.41,0,0,1,98.71,173.92ZM91.06,164a.79.79,0,0,1,.24-.56.82.82,0,0,1,.58-.24.78.78,0,0,1,.57.24.8.8,0,0,1,.23.56.79.79,0,0,1-.8.82.8.8,0,0,1-.82-.82Zm2.34,0a.79.79,0,0,1,.24-.56.78.78,0,0,1,.57-.24.75.75,0,0,1,.57.24A.77.77,0,0,1,95,164a.81.81,0,0,1-.23.59.85.85,0,0,1-1.16,0A.78.78,0,0,1,93.4,164ZM97,166v5.66a3.64,3.64,0,0,1-1,2.77,5.27,5.27,0,0,1-5.92,0,3.6,3.6,0,0,1-1-2.77V166H91v5.36a2.51,2.51,0,0,0,.5,1.69,1.89,1.89,0,0,0,1.49.57,1.91,1.91,0,0,0,1.5-.57,2.44,2.44,0,0,0,.52-1.69V166Zm-17.76,9.11V166h2.48a10.82,10.82,0,0,1,2.32.2,3.84,3.84,0,0,1,.79.27,4.32,4.32,0,0,1,.7.42,4,4,0,0,1,1.25,1.55,5.56,5.56,0,0,1,0,4.29,4,4,0,0,1-1.28,1.54,3.87,3.87,0,0,1-1.39.65,7.89,7.89,0,0,1-.93.15c-.37,0-.8,0-1.3,0H79.21Zm2-1.64h1.09a2.52,2.52,0,0,0,2.93-2.91,3,3,0,0,0-.7-2.2,3,3,0,0,0-2.23-.71H81.16Zm-12.9,1.64V166h2l4,5.3a5.37,5.37,0,0,1,.38.64c.13.25.27.57.44,1,0-.12,0-.24-.06-.38s0-.29,0-.43,0-.27,0-.51,0-.4,0-.48V166h1.86v9.11H75l-4.14-5.4a4.32,4.32,0,0,1-.38-.62c-.13-.27-.28-.6-.44-1,0,.24.08.51.1.8,0,.11,0,.28,0,.52s0,.4,0,.49v5.2Zm-7.59,0V166H66v1.64H62.62v1.88H66v1.65H62.62v2.29H66v1.65Z"/></g></g></svg>